<svg width="70" height="70" viewBox="0 0 70 70" fill="none" xmlns="http://www.w3.org/2000/svg">
<g clip-path="url(#clip0_1137_1603)">
<path d="M16.3333 37.3346H14V32.668H16.3333C16.9522 32.668 17.5457 32.9138 17.9832 33.3514C18.4208 33.789 18.6667 34.3825 18.6667 35.0013C18.6667 35.6201 18.4208 36.2136 17.9832 36.6512C17.5457 37.0888 16.9522 37.3346 16.3333 37.3346ZM32.6667 46.668V32.668H35C35.6188 32.668 36.2123 32.9138 36.6499 33.3514C37.0875 33.789 37.3333 34.3825 37.3333 35.0013V44.3346C37.3333 44.9535 37.0875 45.547 36.6499 45.9846C36.2123 46.4221 35.6188 46.668 35 46.668H32.6667Z" fill="white"/>
<path fill-rule="evenodd" clip-rule="evenodd" d="M4.66663 7C4.66663 5.14348 5.40412 3.36301 6.71688 2.05025C8.02963 0.737498 9.81011 0 11.6666 0L49.966 0L65.3333 15.3673V63C65.3333 64.8565 64.5958 66.637 63.283 67.9497C61.9703 69.2625 60.1898 70 58.3333 70H11.6666C9.81011 70 8.02963 69.2625 6.71688 67.9497C5.40412 66.637 4.66663 64.8565 4.66663 63V7ZM16.3333 28H9.33329V51.3333H14V42H16.3333C18.1898 42 19.9703 41.2625 21.283 39.9497C22.5958 38.637 23.3333 36.8565 23.3333 35C23.3333 33.1435 22.5958 31.363 21.283 30.0503C19.9703 28.7375 18.1898 28 16.3333 28ZM35 28H28V51.3333H35C36.8565 51.3333 38.637 50.5958 39.9497 49.2831C41.2625 47.9703 42 46.1898 42 44.3333V35C42 33.1435 41.2625 31.363 39.9497 30.0503C38.637 28.7375 36.8565 28 35 28ZM46.6666 51.3333V28H60.6666V32.6667H51.3333V37.3333H56V42H51.3333V51.3333H46.6666Z" fill="white"/>
</g>
<defs>
<clipPath id="clip0_1137_1603">
<rect width="70" height="70" fill="white"/>
</clipPath>
</defs>
</svg>
