<svg width="70" height="70" viewBox="0 0 70 70" fill="none" xmlns="http://www.w3.org/2000/svg">
<path d="M35 0C21.8859 8.75 17.5109 8.75 4.375 8.75C4.375 52.5109 4.375 52.5109 35 70C65.625 52.5109 65.625 52.5109 65.625 8.75C52.5109 8.75 48.1359 8.75 35 0ZM17.3753 21.7962H21.7853V35.0241C21.7853 38.8741 22.33 39.4231 26.1931 39.4231C30.0562 39.4231 30.6031 38.8631 30.6031 35.0131V21.7984H35.0022V24.0297C36.906 22.582 39.232 21.7982 41.6237 21.7984C44.5429 21.8094 47.3391 22.9754 49.4013 25.0417C51.4634 27.1079 52.6239 29.9064 52.6291 32.8256C52.6181 35.7429 51.4536 38.5375 49.3897 40.5993C47.3258 42.6611 44.5301 43.8229 41.6128 43.8309C40.1525 43.8274 38.7075 43.5337 37.3616 42.9671C36.0158 42.4004 34.7959 41.572 33.7728 40.53C32.4275 42.7722 29.9469 43.8309 26.1953 43.8309C20.1338 43.8309 17.3775 41.0747 17.3775 35.0131L17.3753 21.7962ZM41.6084 26.2041C40.7378 26.1979 39.8746 26.3651 39.0692 26.6959C38.2638 27.0266 37.5323 27.5143 36.9172 28.1306C36.3022 28.7469 35.8159 29.4794 35.4868 30.2854C35.1576 31.0915 34.9921 31.955 35 32.8256C34.9983 33.6945 35.1685 34.5552 35.501 35.358C35.8334 36.1608 36.3215 36.8899 36.937 37.5032C37.5525 38.1165 38.2834 38.6019 39.0874 38.9314C39.8914 39.2609 40.7527 39.428 41.6216 39.4231C42.4911 39.4275 43.3529 39.259 44.1567 38.9275C44.9606 38.596 45.6906 38.108 46.3042 37.4919C46.9179 36.8758 47.403 36.1439 47.7313 35.3387C48.0597 34.5335 48.2247 33.6711 48.2169 32.8016C48.2215 31.9331 48.0538 31.0724 47.7233 30.2693C47.3928 29.4662 46.9063 28.7366 46.2918 28.123C45.6773 27.5093 44.9471 27.0237 44.1436 26.6943C43.34 26.3649 42.4769 26.1983 41.6084 26.2041Z" fill="white"/>
</svg>
