<svg width="70" height="70" viewBox="0 0 70 70" fill="none" xmlns="http://www.w3.org/2000/svg">
<path d="M11.6667 20.9987C11.6667 14.4607 16.7954 9.33203 23.3334 9.33203H58.3287C58.9476 9.33141 59.5413 9.57665 59.9793 10.0138C60.4174 10.4509 60.6638 11.0442 60.6644 11.663C60.665 12.2819 60.4198 12.8756 59.9826 13.3136C59.5455 13.7517 58.9523 13.9981 58.3334 13.9987H40.5627L39.2234 17.9887L34.2674 32.6654H39.6667C40.2856 32.6654 40.8791 32.9112 41.3167 33.3488C41.7542 33.7864 42.0001 34.3799 42.0001 34.9987C42.0001 35.6175 41.7542 36.211 41.3167 36.6486C40.8791 37.0862 40.2856 37.332 39.6667 37.332H32.6854C31.0849 42.0685 29.4577 46.7959 27.8041 51.514C26.3014 55.714 24.3041 58.2667 21.7841 59.6294C19.4274 60.9034 16.9961 60.8987 15.3254 60.8987H15.1667C14.486 60.8987 13.8332 60.6283 13.3518 60.1469C12.8705 59.6656 12.6001 59.0128 12.6001 58.332C12.6001 57.6513 12.8705 56.9985 13.3518 56.5171C13.8332 56.0358 14.486 55.7654 15.1667 55.7654C16.9961 55.7654 18.2187 55.7187 19.3387 55.112C20.3654 54.5567 21.7234 53.2687 22.9694 49.7827C23.8327 47.37 25.4521 42.6567 27.2627 37.332H21.0001C20.3812 37.332 19.7878 37.0862 19.3502 36.6486C18.9126 36.211 18.6667 35.6175 18.6667 34.9987C18.6667 34.3799 18.9126 33.7864 19.3502 33.3488C19.7878 32.9112 20.3812 32.6654 21.0001 32.6654H28.8494C30.6924 27.2297 32.528 21.7914 34.3561 16.3507L35.1541 13.9987H23.3334C19.3714 13.9987 16.3334 17.0367 16.3334 20.9987C16.3334 21.6175 16.0876 22.211 15.65 22.6486C15.2124 23.0862 14.6189 23.332 14.0001 23.332C13.3812 23.332 12.7878 23.0862 12.3502 22.6486C11.9126 22.211 11.6667 21.6175 11.6667 20.9987Z" fill="white"/>
</svg>
