<svg width="81" height="70" viewBox="0 0 81 70" fill="none" xmlns="http://www.w3.org/2000/svg">
<g clip-path="url(#clip0_1135_1072)">
<path d="M80.354 0H0.000610352V64.2986C0.000610352 67.3224 2.45344 69.7806 5.48258 69.7806H74.8774C77.9012 69.7806 80.3594 67.3278 80.3594 64.2986L80.354 0Z" fill="#F1F3F4"/>
<path d="M0.000610352 0H80.354V35.0753H0.000610352V0Z" fill="#E8EAED"/>
<path d="M49.307 14.9815H31.0476C30.5679 14.9818 30.0927 14.8875 29.6494 14.7041C29.2061 14.5206 28.8033 14.2515 28.464 13.9123C28.1248 13.573 27.8557 13.1702 27.6722 12.7269C27.4888 12.2836 27.3945 11.8084 27.3948 11.3287C27.3945 10.8489 27.4888 10.3737 27.6722 9.93042C27.8557 9.4871 28.1248 9.0843 28.464 8.74504C28.8033 8.40578 29.2061 8.13672 29.6494 7.95325C30.0927 7.76978 30.5679 7.67549 31.0476 7.67578H49.307C49.7868 7.67549 50.2619 7.76978 50.7052 7.95325C51.1485 8.13672 51.5513 8.40578 51.8906 8.74504C52.2298 9.0843 52.4989 9.4871 52.6824 9.93042C52.8658 10.3737 52.9601 10.8489 52.9598 11.3287C52.9598 13.343 51.3263 14.9815 49.307 14.9815Z" fill="white"/>
<mask id="mask0_1135_1072" style="mask-type:luminance" maskUnits="userSpaceOnUse" x="0" y="0" width="81" height="70">
<path d="M80.354 0H0.000610352V64.2986C0.000610352 67.3224 2.45344 69.7806 5.48258 69.7806H74.8774C77.9012 69.7806 80.3594 67.3278 80.3594 64.2986L80.354 0Z" fill="white"/>
</mask>
<g mask="url(#mask0_1135_1072)">
<path d="M10.1294 46.9423L14.9136 61.5381L25.1587 72.9725L40.1773 46.9476L70.2252 46.9423C64.2253 36.5703 53.018 29.5977 40.1773 29.5977C27.3365 29.5977 16.1293 36.5703 10.1294 46.9423Z" fill="url(#paint0_linear_1135_1072)"/>
<path d="M40.1722 99.0019L50.417 87.5624L55.1958 72.9717H25.1533L10.1293 46.9414C4.15045 57.324 3.71162 70.5242 10.1347 81.6466C16.5524 92.7694 28.1981 98.9916 40.1719 99.0023" fill="url(#paint1_linear_1135_1072)"/>
<path d="M70.2253 46.9492H40.1774L55.2013 72.9741L40.1774 99.0044C52.1565 98.9941 63.8025 92.7719 70.2202 81.6491C76.643 70.5267 76.2044 57.3318 70.2253 46.9492Z" fill="url(#paint2_linear_1135_1072)"/>
<path d="M40.1773 81.6491C49.7564 81.6491 57.5219 73.8813 57.5219 64.2992C57.5219 54.7171 49.7564 46.9492 40.1773 46.9492C30.5981 46.9492 22.8326 54.7171 22.8326 64.2992C22.8326 73.8813 30.5981 81.6491 40.1773 81.6491Z" fill="#F1F3F4"/>
<path d="M40.1772 78.397C47.9608 78.397 54.2707 72.0847 54.2707 64.2981C54.2707 56.5115 47.9608 50.1992 40.1772 50.1992C32.3935 50.1992 26.0836 56.5115 26.0836 64.2981C26.0836 72.0847 32.3935 78.397 40.1772 78.397Z" fill="#1A73E8"/>
</g>
<path opacity="0.1" d="M0.000732422 35.0771H80.3541V35.5316H0.000732422V35.0771ZM0.000732422 34.6172H80.3541V35.0717H0.000732422V34.6172Z" fill="#BDC1C6"/>
</g>
<defs>
<linearGradient id="paint0_linear_1135_1072" x1="10.1294" y1="2198.34" x2="6019.71" y2="2198.34" gradientUnits="userSpaceOnUse">
<stop stop-color="#D93025"/>
<stop offset="1" stop-color="#EA4335"/>
</linearGradient>
<linearGradient id="paint1_linear_1135_1072" x1="3731.34" y1="5035.72" x2="792.025" y2="-55.087" gradientUnits="userSpaceOnUse">
<stop stop-color="#1E8E3E"/>
<stop offset="1" stop-color="#34A853"/>
</linearGradient>
<linearGradient id="paint2_linear_1135_1072" x1="2118.49" y1="39.9739" x2="-469.276" y2="4522.01" gradientUnits="userSpaceOnUse">
<stop stop-color="#FBBC04"/>
<stop offset="1" stop-color="#FCC934"/>
</linearGradient>
<clipPath id="clip0_1135_1072">
<rect width="80.36" height="70" fill="white"/>
</clipPath>
</defs>
</svg>
