<svg width="70" height="70" viewBox="0 0 70 70" fill="none" xmlns="http://www.w3.org/2000/svg">
<path d="M42.8334 33.5781L18.62 29.3125V60.8322C18.6197 61.1748 18.687 61.514 18.8181 61.8306C18.9492 62.1471 19.1415 62.4346 19.384 62.6766C19.6264 62.9187 19.9143 63.1105 20.231 63.241C20.5477 63.3716 20.8871 63.4384 21.2297 63.4375H63.0109C63.3539 63.4389 63.6937 63.3726 64.011 63.2423C64.3282 63.112 64.6166 62.9203 64.8595 62.6782C65.1024 62.4361 65.2951 62.1484 65.4264 61.8316C65.5578 61.5148 65.6253 61.1751 65.625 60.8322V49.2188L42.8334 33.5781Z" fill="#185C37"/>
<path d="M42.8334 6.56251H21.2297C20.8871 6.56164 20.5477 6.62841 20.231 6.75898C19.9143 6.88955 19.6264 7.08135 19.384 7.32339C19.1415 7.56543 18.9492 7.85295 18.8181 8.16946C18.687 8.48596 18.6197 8.82524 18.62 9.16782V20.7813L42.8334 35L55.6544 39.2656L65.625 35V20.7813L42.8334 6.56251Z" fill="#21A366"/>
<path d="M18.62 20.7812H42.8334V35H18.62V20.7812Z" fill="#107C41"/>
<path opacity="0.1" d="M35.9494 17.9375H18.62V53.4844H35.9494C36.6399 53.4809 37.3012 53.2056 37.7901 52.7179C38.279 52.2302 38.5561 51.5696 38.5612 50.8791V20.5428C38.5561 19.8523 38.279 19.1916 37.7901 18.704C37.3012 18.2163 36.6399 17.9409 35.9494 17.9375Z" fill="black"/>
<path opacity="0.2" d="M34.5253 19.3594H18.62V54.9062H34.5253C35.2158 54.9028 35.8772 54.6274 36.3661 54.1398C36.855 53.6521 37.132 52.9914 37.1372 52.3009V21.9647C37.132 21.2742 36.855 20.6135 36.3661 20.1259C35.8772 19.6382 35.2158 19.3628 34.5253 19.3594Z" fill="black"/>
<path opacity="0.2" d="M34.5253 19.3594H18.62V52.0625H34.5253C35.2158 52.0591 35.8772 51.7837 36.3661 51.296C36.855 50.8084 37.132 50.1477 37.1372 49.4572V21.9647C37.132 21.2742 36.855 20.6135 36.3661 20.1259C35.8772 19.6382 35.2158 19.3628 34.5253 19.3594Z" fill="black"/>
<path opacity="0.2" d="M33.1012 19.3594H18.62V52.0625H33.1012C33.7918 52.0591 34.4531 51.7837 34.942 51.296C35.4309 50.8084 35.708 50.1477 35.7131 49.4572V21.9647C35.708 21.2742 35.4309 20.6135 34.942 20.1259C34.4531 19.6382 33.7918 19.3628 33.1012 19.3594Z" fill="black"/>
<path d="M6.98688 19.3594H33.1012C33.793 19.3588 34.4567 19.6329 34.9464 20.1214C35.4362 20.61 35.712 21.2729 35.7131 21.9647V48.0353C35.712 48.7271 35.4362 49.3901 34.9464 49.8786C34.4567 50.3671 33.793 50.6412 33.1012 50.6406H6.98688C6.64411 50.6418 6.30449 50.5752 5.98751 50.4448C5.67053 50.3144 5.38243 50.1226 5.13975 49.8805C4.89708 49.6385 4.70459 49.3508 4.57336 49.0342C4.44212 48.7175 4.37471 48.3781 4.375 48.0353V21.9647C4.37471 21.6219 4.44212 21.2825 4.57336 20.9658C4.70459 20.6492 4.89708 20.3616 5.13975 20.1195C5.38243 19.8774 5.67053 19.6857 5.98751 19.5552C6.30449 19.4248 6.64411 19.3582 6.98688 19.3594Z" fill="url(#paint0_linear_1138_877)"/>
<path d="M12.4688 43.4717L17.9616 34.9755L12.9303 26.5273H16.9706L19.7159 31.937C19.9697 32.4489 20.1534 32.8295 20.2366 33.0833H20.2737C20.4531 32.6735 20.6427 32.2754 20.8425 31.8889L23.7781 26.5361H27.4969L22.3366 34.9361L27.6281 43.4783H23.6709L20.4991 37.548C20.3522 37.2928 20.2271 37.0257 20.125 36.7495H20.0725C19.9798 37.0187 19.8565 37.2763 19.705 37.5173L16.4391 43.4717H12.4688Z" fill="white"/>
<path d="M63.0131 6.56251H42.8334V20.7813H65.625V9.16783C65.6253 8.82506 65.5579 8.48561 65.4266 8.16896C65.2954 7.85231 65.1029 7.56469 64.8602 7.32262C64.6176 7.08055 64.3295 6.8888 64.0125 6.75836C63.6955 6.62792 63.3559 6.56136 63.0131 6.56251Z" fill="#33C481"/>
<path d="M42.8334 35H65.625V49.2188H42.8334V35Z" fill="#107C41"/>
<defs>
<linearGradient id="paint0_linear_1138_877" x1="9.83063" y1="17.3119" x2="30.2575" y2="52.6881" gradientUnits="userSpaceOnUse">
<stop stop-color="#18884F"/>
<stop offset="0.5" stop-color="#117E43"/>
<stop offset="1" stop-color="#0B6631"/>
</linearGradient>
</defs>
</svg>
