<?xml version="1.0" encoding="iso-8859-1"?>
<!-- Generator: Adobe Illustrator 24.1.0, SVG Export Plug-In . SVG Version: 6.00 Build 0)  -->
<svg version="1.1" id="Layer_1" xmlns="http://www.w3.org/2000/svg" xmlns:xlink="http://www.w3.org/1999/xlink" x="0px" y="0px"
	 viewBox="0 0 48 48" style="enable-background:new 0 0 48 48;" xml:space="preserve">
<linearGradient id="SVGID_1_" gradientUnits="userSpaceOnUse" x1="31.645" y1="6.8393" x2="31.645" y2="40.615">
	<stop  offset="0" style="stop-color:#E68E00"/>
	<stop  offset="0.0361" style="stop-color:#E38400"/>
	<stop  offset="0.1706" style="stop-color:#DB6200"/>
	<stop  offset="0.2988" style="stop-color:#D44A00"/>
	<stop  offset="0.4168" style="stop-color:#D03B00"/>
	<stop  offset="0.5149" style="stop-color:#CF3600"/>
	<stop  offset="0.8785" style="stop-color:#D22900"/>
	<stop  offset="0.9997" style="stop-color:#D42400"/>
</linearGradient>
<path style="fill:url(#SVGID_1_);" d="M35.883,7.341C37.726,7.85,39,9.508,39,11.397v25.162c0,1.906-1.301,3.57-3.168,4.065
	L24.29,43.863L28,36V11l-3.148-6.885L35.883,7.341z"/>
<linearGradient id="SVGID_2_" gradientUnits="userSpaceOnUse" x1="13.922" y1="34.951" x2="29.0508" y2="41.0729">
	<stop  offset="0" style="stop-color:#F52537"/>
	<stop  offset="0.293" style="stop-color:#F32536"/>
	<stop  offset="0.4646" style="stop-color:#EA2434"/>
	<stop  offset="0.605" style="stop-color:#DC2231"/>
	<stop  offset="0.7285" style="stop-color:#C8202C"/>
	<stop  offset="0.8408" style="stop-color:#AE1E25"/>
	<stop  offset="0.9436" style="stop-color:#8F1A1D"/>
	<stop  offset="1" style="stop-color:#7A1818"/>
</linearGradient>
<path style="fill:url(#SVGID_2_);" d="M28,35v3.927c0,3.803-3.824,6.249-7.019,4.491l-6.936-4.445
	c-0.802-0.466-1.236-1.462-0.964-2.457C13.334,35.59,14.202,35,15.115,35H28z"/>
<linearGradient id="SVGID_3_" gradientUnits="userSpaceOnUse" x1="5.3823" y1="32.2894" x2="25.8738" y2="1.7797">
	<stop  offset="0" style="stop-color:#D96AB1"/>
	<stop  offset="0.1368" style="stop-color:#D9538B"/>
	<stop  offset="0.4955" style="stop-color:#D91A2A"/>
	<stop  offset="0.5751" style="stop-color:#D31A29"/>
	<stop  offset="0.6804" style="stop-color:#C21926"/>
	<stop  offset="0.8001" style="stop-color:#A71821"/>
	<stop  offset="0.9295" style="stop-color:#811619"/>
	<stop  offset="1" style="stop-color:#691515"/>
</linearGradient>
<path style="fill:url(#SVGID_3_);" d="M21.946,4.526l-11.924,6.786C8.772,12.024,8,13.351,8,14.789v18.429
	c0,1.357,1.459,2.215,2.645,1.554l4.472-2.491C15.662,31.978,16,31.402,16,30.778V17.743c0-1.307,0.78-2.48,1.963-2.949L28,11.308
	v-3.09C28,5.014,24.669,2.983,21.946,4.526z"/>
</svg>