<svg width="70" height="70" viewBox="0 0 70 70" fill="none" xmlns="http://www.w3.org/2000/svg">
<path fill-rule="evenodd" clip-rule="evenodd" d="M9.25159 9.25312C5.83325 12.6685 5.83325 18.1694 5.83325 29.1681V40.8348C5.83325 51.8335 5.83325 57.3344 9.25159 60.7498C12.6699 64.1652 18.1678 64.1681 29.1666 64.1681H40.8333C51.832 64.1681 57.3328 64.1681 60.7482 60.7498C64.1637 57.3315 64.1666 51.8335 64.1666 40.8348V29.1681C64.1666 20.8848 64.1666 15.7223 62.7082 12.2194V49.5848C61.3216 49.585 59.9486 49.3121 58.6674 48.7816C57.3863 48.2511 56.2222 47.4735 55.2416 46.4931L53.0482 44.2998C50.9424 42.194 49.8924 41.144 48.6995 40.7006C47.3881 40.213 45.9451 40.213 44.6337 40.7006C43.4408 41.144 42.3878 42.194 40.2878 44.2998L39.9553 44.6294C38.2491 46.3356 37.3945 47.1902 36.4874 47.3477C35.7829 47.4719 35.0573 47.3328 34.4487 46.9569C33.667 46.4727 33.1916 45.3615 32.2378 43.1419L32.0833 42.7802C29.8958 37.676 28.8049 35.1269 26.8974 34.1702C25.9368 33.6886 24.8619 33.4817 23.7912 33.5723C21.6649 33.7531 19.7049 35.716 15.7791 39.639L10.2083 45.2098V8.42188C9.86992 8.67271 9.55103 8.94979 9.25159 9.25312Z" fill="white"/>
<path d="M8.75 29.1667C8.75 23.5842 8.75583 19.6904 9.1525 16.7533C9.53458 13.9008 10.2375 12.39 11.3108 11.3137C12.39 10.2346 13.9008 9.53458 16.7533 9.1525C19.6904 8.75583 23.5842 8.75 29.1667 8.75H40.8333C46.4158 8.75 50.3096 8.75583 53.2467 9.1525C56.0992 9.53458 57.61 10.2375 58.6863 11.3108C59.7654 12.39 60.4654 13.9008 60.8504 16.7533C61.2442 19.6904 61.25 23.5842 61.25 29.1667V40.8333C61.25 46.4158 61.2442 50.3096 60.8504 53.2467C60.4654 56.0992 59.7625 57.61 58.6863 58.6863C57.61 59.7654 56.0992 60.4654 53.2467 60.8504C50.3096 61.2442 46.4158 61.25 40.8333 61.25H29.1667C23.5842 61.25 19.6904 61.2442 16.7533 60.8504C13.9008 60.4654 12.39 59.7625 11.3137 58.6863C10.2346 57.61 9.53458 56.0992 9.1525 53.2467C8.75583 50.3096 8.75 46.4158 8.75 40.8333V29.1667Z" stroke="white"/>
<path d="M43.7499 32.0846C46.9716 32.0846 49.5832 29.473 49.5832 26.2513C49.5832 23.0296 46.9716 20.418 43.7499 20.418C40.5282 20.418 37.9166 23.0296 37.9166 26.2513C37.9166 29.473 40.5282 32.0846 43.7499 32.0846Z" fill="white"/>
</svg>
