<svg width="1000" height="658" viewBox="0 0 1000 658" fill="none" xmlns="http://www.w3.org/2000/svg">
<rect width="1000" height="657.895" fill="black"/>
<path d="M372.165 468V459.2C381.551 458.613 388.591 457.44 393.285 455.68C397.978 453.92 401.058 450.4 402.525 445.12C404.285 439.84 405.165 431.92 405.165 421.36V203.12C405.165 192.267 404.285 184.347 402.525 179.36C401.058 174.08 397.831 170.56 392.845 168.8C388.151 166.747 381.258 165.573 372.165 165.28V156.48C380.085 156.773 390.351 157.067 402.965 157.36C415.871 157.653 428.631 157.8 441.245 157.8C454.738 157.8 467.351 157.653 479.085 157.36C491.111 157.067 500.791 156.773 508.125 156.48V165.28C498.738 165.573 491.551 166.747 486.565 168.8C481.871 170.56 478.791 174.08 477.325 179.36C475.858 184.347 475.125 192.267 475.125 203.12V421.36C475.125 431.92 475.858 439.84 477.325 445.12C479.085 450.4 482.311 453.92 487.005 455.68C491.698 457.44 498.738 458.613 508.125 459.2V468C500.791 467.413 491.111 467.12 479.085 467.12C467.351 466.827 454.738 466.68 441.245 466.68C428.631 466.68 415.871 466.827 402.965 467.12C390.351 467.12 380.085 467.413 372.165 468ZM185.605 468V459.2C194.991 458.613 202.031 457.44 206.725 455.68C211.418 453.92 214.498 450.4 215.965 445.12C217.725 439.84 218.605 431.92 218.605 421.36V203.12C218.605 192.267 217.725 184.347 215.965 179.36C214.498 174.08 211.271 170.56 206.285 168.8C201.591 166.747 194.698 165.573 185.605 165.28V156.48C193.231 156.773 203.058 157.067 215.085 157.36C227.405 157.653 240.751 157.8 255.125 157.8C267.445 157.8 279.618 157.653 291.645 157.36C303.671 157.067 313.645 156.773 321.565 156.48V165.28C312.178 165.573 304.991 166.747 300.005 168.8C295.311 170.56 292.231 174.08 290.765 179.36C289.298 184.347 288.565 192.267 288.565 203.12V421.36C288.565 431.92 289.298 439.84 290.765 445.12C292.525 450.4 295.751 453.92 300.445 455.68C305.138 457.44 312.178 458.613 321.565 459.2V468C313.645 467.413 303.671 467.12 291.645 467.12C279.618 466.827 267.445 466.68 255.125 466.68C240.751 466.68 227.405 466.827 215.085 467.12C203.058 467.12 193.231 467.413 185.605 468ZM259.965 315.76V306.96H433.765V315.76H259.965ZM693.801 150.32C713.161 150.32 729.001 153.253 741.321 159.12C753.934 164.693 765.081 171.293 774.761 178.92C780.628 183.32 785.028 183.907 787.961 180.68C791.188 177.16 793.388 169.093 794.561 156.48H804.681C804.094 167.92 803.654 181.853 803.361 198.28C803.068 214.413 802.921 235.973 802.921 262.96H792.801C791.334 249.467 789.428 238.027 787.081 228.64C784.734 218.96 781.508 210.453 777.401 203.12C773.294 195.787 767.428 189.187 759.801 183.32C752.468 175.987 743.961 170.56 734.281 167.04C724.601 163.52 714.481 161.76 703.921 161.76C688.081 161.76 674.588 166.013 663.441 174.52C652.294 182.733 643.201 194.027 636.161 208.4C629.414 222.773 624.428 239.053 621.201 257.24C617.974 275.133 616.361 293.76 616.361 313.12C616.361 332.773 617.974 351.693 621.201 369.88C624.721 387.773 630.001 403.76 637.041 417.84C644.374 431.92 653.761 443.067 665.201 451.28C676.641 459.493 690.134 463.6 705.681 463.6C715.361 463.6 725.041 461.84 734.721 458.32C744.694 454.507 753.201 449.08 760.241 442.04C771.681 433.24 779.454 422.387 783.561 409.48C787.668 396.28 790.748 378.827 792.801 357.12H802.921C802.921 384.987 803.068 407.573 803.361 424.88C803.654 441.893 804.094 456.267 804.681 468H794.561C793.388 455.387 791.334 447.467 788.401 444.24C785.761 441.013 781.214 441.453 774.761 445.56C763.908 453.187 752.321 459.933 740.001 465.8C727.974 471.373 712.428 474.16 693.361 474.16C662.268 474.16 634.988 467.853 611.521 455.24C588.348 442.627 570.308 424.44 557.401 400.68C544.494 376.92 538.041 348.32 538.041 314.88C538.041 282.027 544.641 253.28 557.841 228.64C571.334 204 589.668 184.787 612.841 171C636.308 157.213 663.294 150.32 693.801 150.32Z" fill="white"/>
<rect x="212" y="281" width="569" height="70" fill="black"/>
<path d="M240.474 328.68V317.88H226.394V327.6C226.394 329.28 226.554 330.28 226.834 330.64C226.074 331 225.194 331.2 224.194 331.2C223.714 331.2 223.354 331.04 223.074 330.72C222.794 330.4 222.674 329.72 222.674 328.72V309.04C222.674 307.08 222.554 305.16 222.274 303.28C223.274 303.04 224.554 302.92 226.114 302.92C226.314 304.48 226.394 306.32 226.394 308.44V315.68H240.474V309.04C240.474 306.96 240.394 305.04 240.194 303.28C241.194 303.04 242.434 302.92 243.914 302.92C244.114 304.48 244.194 306.32 244.194 308.44V327.6C244.194 329.24 244.434 330.24 244.874 330.6C244.034 330.96 243.074 331.16 241.994 331.16C241.514 331.16 241.154 331 240.874 330.64C240.594 330.28 240.474 329.64 240.474 328.68ZM279.561 328.68L277.241 322.8H265.201L263.401 327.56C262.881 328.92 262.601 329.92 262.601 330.6C261.761 330.96 260.921 331.16 260.041 331.16C259.521 331.16 259.241 330.92 259.241 330.48C259.241 330.08 259.401 329.48 259.681 328.68L267.441 309C268.161 307.24 268.801 305.32 269.321 303.24C270.281 303 271.561 302.88 273.161 302.88C273.761 304.04 274.561 305.88 275.561 308.4L283.121 327.56C283.761 329.2 284.361 330.2 284.961 330.6C284.281 330.96 283.361 331.16 282.201 331.16C281.121 331.16 280.241 330.32 279.561 328.68ZM271.841 309H271.881C271.441 307.96 271.201 307.4 271.161 307.32L266.081 320.56H276.361L271.841 309ZM300.2 316.84L300.12 316.76C300.12 320.36 300.96 323.28 302.68 325.52C304.4 327.76 306.64 328.88 309.4 328.88C310.8 328.88 312.04 328.72 313.12 328.44C314.2 328.16 314.96 327.84 315.44 327.48C315.92 327.12 316.36 326.8 316.8 326.52C317.24 326.24 317.56 326.08 317.8 326.08C318 326.08 318.28 326.2 318.64 326.4L319.24 326.76C318.32 328.08 316.96 329.16 315.16 330C313.36 330.84 311.36 331.24 309.16 331.24C305.16 331.24 302 329.96 299.64 327.44C297.28 324.92 296.12 321.6 296.12 317.48C296.12 313.12 297.36 309.6 299.8 306.92C302.24 304.24 305.52 302.88 309.6 302.88C312.36 302.88 314.64 303.44 316.4 304.52C318.16 305.6 319.04 306.68 319.04 307.76C319.04 308.76 318.04 309.28 316 309.28C315.48 308.04 314.64 307.04 313.48 306.28C312.32 305.52 310.96 305.12 309.4 305.12C306.68 305.12 304.48 306.2 302.76 308.36C301.04 310.52 300.2 313.36 300.2 316.84ZM334.235 328.68V309.08C334.235 307.12 334.115 305.2 333.835 303.32C334.755 303.04 336.035 302.92 337.715 302.92C337.915 304.48 337.995 306.32 337.995 308.44V327.6C337.995 329.24 338.195 330.24 338.635 330.6C337.795 330.96 336.835 331.16 335.755 331.16C335.275 331.16 334.915 331 334.635 330.64C334.355 330.28 334.235 329.64 334.235 328.68ZM369.472 317.72L360.592 317.76C359.512 317.76 358.712 317.76 358.192 317.8V328.84C358.592 328.8 359.192 328.8 359.952 328.8H369.832C371.512 328.8 372.512 328.64 372.872 328.36C373.232 328.8 373.432 329.36 373.432 330.04C373.432 330.68 372.592 331 370.952 331H360.552C358.512 331 356.592 331.08 354.792 331.28C354.552 330.68 354.432 329.92 354.432 329.04V309.08C354.432 307.08 354.312 305.16 354.032 303.28C355.592 303.08 357.432 303 359.552 303H369.392C371.072 303 372.112 302.88 372.472 302.64C372.832 303.08 372.992 303.64 372.992 304.28C372.992 304.92 372.192 305.24 370.552 305.24H360.152C359.192 305.24 358.472 305.24 358.032 305.28C358.112 306.32 358.152 307.4 358.152 308.52V315.52C358.512 315.48 359.112 315.48 359.912 315.48H368.392C370.032 315.48 371.032 315.4 371.392 315.2C371.752 315.6 371.952 316.12 371.952 316.8C371.952 317.4 371.112 317.72 369.472 317.72ZM388.493 328.68L388.453 309.04C388.453 307.08 388.333 305.16 388.053 303.28C388.893 303.04 390.013 302.92 391.373 302.92V303L406.693 324.2V309.04C406.693 306.96 406.613 305.04 406.413 303.28C407.253 303.04 408.333 302.92 409.653 302.92C409.813 304.6 409.893 306.44 409.893 308.44V327.6C409.893 329.24 410.093 330.24 410.533 330.6C409.773 330.96 408.933 331.16 408.013 331.16C407.493 331.16 407.133 330.92 406.933 330.44L391.653 309.28V327.56C391.653 329.24 391.813 330.24 392.093 330.6C391.373 330.96 390.613 331.16 389.773 331.16C389.333 331.16 389.013 331 388.813 330.68C388.613 330.36 388.493 329.68 388.493 328.68ZM436.826 303V303.04C440.546 303.04 443.586 304.28 445.906 306.8C448.226 309.32 449.386 312.6 449.386 316.68C449.386 320.96 448.186 324.4 445.786 327.04C443.386 329.68 440.226 331 436.306 331H432.426C430.386 331 428.466 331.08 426.666 331.28C426.426 330.68 426.306 329.92 426.306 329.04V309.12C426.306 307.16 426.186 305.24 425.906 303.36C426.906 303.12 428.186 303 429.746 303H436.826ZM430.026 327.6L429.986 328.84C430.346 328.8 430.946 328.8 431.746 328.8H436.626C439.226 328.8 441.306 327.72 442.906 325.56C444.506 323.4 445.306 320.6 445.306 317.12C445.306 313.6 444.506 310.76 442.866 308.56C441.226 306.36 439.106 305.28 436.466 305.28H429.946C429.986 306.72 430.026 307.8 430.026 308.56V327.6ZM463.543 317.32C463.543 313.04 464.743 309.56 467.183 306.88C469.623 304.2 472.783 302.84 476.663 302.84C480.423 302.84 483.463 304.12 485.783 306.68C488.103 309.24 489.263 312.6 489.263 316.72C489.263 321 488.063 324.48 485.623 327.16C483.183 329.84 480.023 331.2 476.103 331.2C472.383 331.2 469.343 329.92 467.023 327.36C464.703 324.8 463.543 321.44 463.543 317.32ZM467.583 316.92L467.543 317C467.543 320.56 468.383 323.44 470.023 325.64C471.663 327.84 473.823 328.96 476.463 328.96C479.063 328.96 481.183 327.88 482.783 325.68C484.383 323.48 485.183 320.64 485.183 317.12C485.183 313.56 484.343 310.68 482.703 308.44C481.063 306.2 478.903 305.08 476.263 305.08C473.663 305.08 471.583 306.16 469.983 308.36C468.383 310.56 467.583 313.4 467.583 316.92ZM527.231 316.84L527.151 316.76C527.151 320.36 527.991 323.28 529.711 325.52C531.431 327.76 533.671 328.88 536.431 328.88C537.831 328.88 539.071 328.72 540.151 328.44C541.231 328.16 541.991 327.84 542.471 327.48C542.951 327.12 543.391 326.8 543.831 326.52C544.271 326.24 544.591 326.08 544.831 326.08C545.031 326.08 545.311 326.2 545.671 326.4L546.271 326.76C545.351 328.08 543.991 329.16 542.191 330C540.391 330.84 538.391 331.24 536.191 331.24C532.191 331.24 529.031 329.96 526.671 327.44C524.311 324.92 523.151 321.6 523.151 317.48C523.151 313.12 524.391 309.6 526.831 306.92C529.271 304.24 532.551 302.88 536.631 302.88C539.391 302.88 541.671 303.44 543.431 304.52C545.191 305.6 546.071 306.68 546.071 307.76C546.071 308.76 545.071 309.28 543.031 309.28C542.511 308.04 541.671 307.04 540.511 306.28C539.351 305.52 537.991 305.12 536.431 305.12C533.711 305.12 531.511 306.2 529.791 308.36C528.071 310.52 527.231 313.36 527.231 316.84ZM561.266 320.28L561.346 309C561.346 307.04 561.226 305.12 560.946 303.24C561.946 303 563.226 302.88 564.786 302.88C564.986 304.44 565.066 306.28 565.066 308.4V320.04C565.066 322.68 565.786 324.8 567.186 326.44C568.586 328.08 570.426 328.88 572.706 328.88C574.986 328.88 576.826 328.08 578.226 326.44C579.626 324.8 580.346 322.68 580.346 320.08V308.96C580.346 306.88 580.266 304.96 580.066 303.2C581.066 302.96 582.306 302.84 583.786 302.84C583.986 304.4 584.066 306.24 584.066 308.36V319.72C584.066 323.12 582.986 325.88 580.826 328C578.666 330.12 575.866 331.16 572.386 331.16C569.066 331.16 566.386 330.16 564.346 328.16C562.306 326.16 561.266 323.52 561.266 320.28ZM600.407 328.68V309.12C600.407 307.16 600.287 305.24 600.007 303.36C600.807 303.16 602.007 303.04 603.607 303H609.447C612.287 303 614.567 303.76 616.287 305.24C618.007 306.72 618.887 308.68 618.887 311.08C618.887 312.96 618.327 314.6 617.247 316C616.167 317.4 614.647 318.4 612.727 319L618.127 327.44C619.207 329.16 620.087 330.2 620.767 330.6C620.087 330.96 619.207 331.16 618.127 331.16C616.887 331.16 615.767 330.32 614.767 328.6L609.007 319.52H606.527C605.447 319.52 604.647 319.52 604.127 319.56V327.56C604.127 329.24 604.287 330.24 604.567 330.6C603.807 330.96 602.927 331.16 601.927 331.16C601.447 331.16 601.087 331 600.807 330.68C600.527 330.36 600.407 329.68 600.407 328.68ZM604.087 305.24L604.047 305.28C604.087 306.72 604.127 307.8 604.127 308.56V317.36C604.487 317.32 605.087 317.32 605.887 317.32H609.247C610.967 317.32 612.367 316.76 613.447 315.64C614.527 314.52 615.047 313.08 615.047 311.32C615.047 309.52 614.487 308.04 613.407 306.92C612.327 305.8 610.887 305.24 609.127 305.24H604.087ZM636.19 324.56L636.11 324.72C636.55 326.12 637.31 327.2 638.35 327.96C639.39 328.72 640.67 329.08 642.19 329.08C643.91 329.08 645.35 328.64 646.47 327.76C647.59 326.88 648.15 325.68 648.15 324.2C648.15 322.88 647.63 321.76 646.63 320.84C645.63 319.92 644.39 319.2 642.95 318.64C641.51 318.08 640.07 317.48 638.63 316.88C637.19 316.28 635.95 315.4 634.95 314.28C633.95 313.16 633.43 311.8 633.43 310.2C633.43 308.04 634.27 306.28 635.91 304.92C637.55 303.56 639.83 302.88 642.75 302.88C645.19 302.88 647.19 303.36 648.75 304.36C650.31 305.36 651.11 306.36 651.11 307.4C651.11 307.96 650.87 308.36 650.35 308.6C649.83 308.84 649.03 308.96 647.95 308.96C647.55 307.84 646.87 306.92 645.91 306.2C644.95 305.48 643.83 305.12 642.55 305.12C640.99 305.12 639.67 305.6 638.59 306.52C637.51 307.44 636.99 308.6 636.99 309.96C636.99 311 637.35 311.88 638.07 312.64C638.79 313.4 639.71 314 640.83 314.44L644.43 315.88C645.71 316.4 646.91 316.92 648.03 317.48C649.15 318.04 650.07 318.84 650.79 319.92C651.51 321 651.87 322.24 651.87 323.68C651.87 326 650.99 327.84 649.23 329.2C647.47 330.56 645.07 331.24 641.99 331.24C639.31 331.24 637.15 330.72 635.51 329.68C633.87 328.64 633.03 327.56 633.03 326.44C633.03 325.2 634.07 324.56 636.19 324.56ZM667.165 328.68V309.08C667.165 307.12 667.045 305.2 666.765 303.32C667.685 303.04 668.965 302.92 670.645 302.92C670.845 304.48 670.925 306.32 670.925 308.44V327.6C670.925 329.24 671.125 330.24 671.565 330.6C670.725 330.96 669.765 331.16 668.685 331.16C668.205 331.16 667.845 331 667.565 330.64C667.285 330.28 667.165 329.64 667.165 328.68ZM706.042 305.24H698.722C698.762 306.64 698.802 307.68 698.802 308.4V327.56C698.802 329.2 699.042 330.2 699.482 330.6C698.642 330.96 697.682 331.16 696.602 331.16C695.522 331.16 695.002 330.32 695.002 328.68V309C695.002 307.36 694.962 306.12 694.882 305.24H691.362C689.242 305.24 687.322 305.32 685.602 305.52C685.322 304.84 685.202 304.08 685.202 303.28C686.762 303.08 688.602 303 690.722 303H704.882C706.562 303 707.602 302.84 707.962 302.52C708.322 303 708.482 303.56 708.482 304.24C708.482 304.92 707.682 305.24 706.042 305.24ZM720.145 317.32C720.145 313.04 721.345 309.56 723.785 306.88C726.225 304.2 729.385 302.84 733.265 302.84C737.025 302.84 740.065 304.12 742.385 306.68C744.705 309.24 745.865 312.6 745.865 316.72C745.865 321 744.665 324.48 742.225 327.16C739.785 329.84 736.625 331.2 732.705 331.2C728.985 331.2 725.945 329.92 723.625 327.36C721.305 324.8 720.145 321.44 720.145 317.32ZM724.185 316.92L724.145 317C724.145 320.56 724.985 323.44 726.625 325.64C728.265 327.84 730.425 328.96 733.065 328.96C735.665 328.96 737.785 327.88 739.385 325.68C740.985 323.48 741.785 320.64 741.785 317.12C741.785 313.56 740.945 310.68 739.305 308.44C737.665 306.2 735.505 305.08 732.865 305.08C730.265 305.08 728.185 306.16 726.585 308.36C724.985 310.56 724.185 313.4 724.185 316.92ZM762.791 324.56L762.711 324.72C763.151 326.12 763.911 327.2 764.951 327.96C765.991 328.72 767.271 329.08 768.791 329.08C770.511 329.08 771.951 328.64 773.071 327.76C774.191 326.88 774.751 325.68 774.751 324.2C774.751 322.88 774.231 321.76 773.231 320.84C772.231 319.92 770.991 319.2 769.551 318.64C768.111 318.08 766.671 317.48 765.231 316.88C763.791 316.28 762.551 315.4 761.551 314.28C760.551 313.16 760.031 311.8 760.031 310.2C760.031 308.04 760.871 306.28 762.511 304.92C764.151 303.56 766.431 302.88 769.351 302.88C771.791 302.88 773.791 303.36 775.351 304.36C776.911 305.36 777.711 306.36 777.711 307.4C777.711 307.96 777.471 308.36 776.951 308.6C776.431 308.84 775.631 308.96 774.551 308.96C774.151 307.84 773.471 306.92 772.511 306.2C771.551 305.48 770.431 305.12 769.151 305.12C767.591 305.12 766.271 305.6 765.191 306.52C764.111 307.44 763.591 308.6 763.591 309.96C763.591 311 763.951 311.88 764.671 312.64C765.391 313.4 766.311 314 767.431 314.44L771.031 315.88C772.311 316.4 773.511 316.92 774.631 317.48C775.751 318.04 776.671 318.84 777.391 319.92C778.111 321 778.471 322.24 778.471 323.68C778.471 326 777.591 327.84 775.831 329.2C774.071 330.56 771.671 331.24 768.591 331.24C765.911 331.24 763.751 330.72 762.111 329.68C760.471 328.64 759.631 327.56 759.631 326.44C759.631 325.2 760.671 324.56 762.791 324.56Z" fill="white"/>
</svg>
